<!-- placeholder: replace with Codex Image2 512px WebP (spec §7) -->
<svg xmlns="http://www.w3.org/2000/svg" viewBox="0 0 512 512"><path d="M256 110L311.8 223.1 436.7 241.3 346.3 329.4 367.7 453.7 256 395 144.3 453.7 165.7 329.4 75.3 241.3 200.2 223.1Z" fill="#ffe08a" stroke="#f0a832" stroke-width="14" stroke-linejoin="round"/><circle cx="180" cy="322" r="17" fill="#f2a9b8" fill-opacity="0.55"/><circle cx="332" cy="322" r="17" fill="#f2a9b8" fill-opacity="0.55"/><circle cx="201" cy="292" r="22" fill="#2b2b33"/><circle cx="194" cy="285" r="7" fill="#fff"/><circle cx="311" cy="292" r="22" fill="#2b2b33"/><circle cx="304" cy="285" r="7" fill="#fff"/><path d="M234 336Q256 354 278 336" fill="none" stroke="#2b2b33" stroke-width="9" stroke-linecap="round"/><path d="M430 70L438 88L456 96L438 104L430 122L422 104L404 96L422 88Z" fill="#ffd84d"/></svg>
